<svg width="80" height="700" viewBox="0 0 80 700" fill="none" xmlns="http://www.w3.org/2000/svg">
<g filter="url(#filter0_bd_109_598)">
<path d="M0 0H16.5446C38.7561 0 49.8618 0 58.3455 4.32264C65.8079 8.12494 71.875 14.1921 75.6773 21.6545C80 30.1382 80 41.2439 80 63.4554V115.484C80 126.528 80 132.049 78.7303 136.946C76.6375 145.017 77.9033 142.204 73.2506 149.122C70.4279 153.32 53.9439 167.926 20.9759 197.137C13.278 203.958 8 213.275 8 226C8 235.084 10.6896 242.151 15.0292 247.641C54.2961 297.318 73.9296 322.156 75.7315 325.719C79.7487 333.662 77.4299 326.989 79.2042 335.712C80 339.625 80 333.457 80 335.924V636.545C80 658.756 80 669.862 75.6773 678.345C71.875 685.808 65.8079 691.875 58.3455 695.677C49.8618 700 38.7561 700 16.5446 700H0V0Z" fill="white" fill-opacity="0.4"/>
<path d="M79.1995 337.543C79.2356 337.572 79.2811 337.604 79.3354 337.632V636.545C79.3354 647.661 79.3349 655.959 78.7973 662.539C78.2603 669.111 77.1908 673.911 75.0852 678.044C71.3466 685.381 65.3811 691.347 58.0437 695.085C53.9112 697.191 49.1111 698.26 42.5388 698.797C35.9588 699.335 27.6613 699.335 16.5446 699.335H0.66456V0.66456H16.5446C27.6613 0.66456 35.9588 0.665077 42.5388 1.20268C49.1111 1.73966 53.9112 2.80914 58.0437 4.91477C65.3811 8.65336 71.3466 14.6188 75.0852 21.9562C77.1908 26.0888 78.2603 30.8889 78.7973 37.4612C79.3349 44.0411 79.3354 52.3387 79.3354 63.4554V115.484C79.3354 126.565 79.3303 131.984 78.087 136.779C77.7454 138.097 77.4899 139.137 77.2861 139.968C77.1785 140.406 77.0853 140.786 77.0013 141.117C76.7541 142.092 76.5823 142.665 76.3444 143.193C76.1065 143.722 75.7916 144.231 75.2259 145.062C75.0337 145.345 74.8111 145.667 74.5542 146.038C74.0679 146.741 73.4585 147.622 72.6992 148.752C72.0367 149.737 70.5254 151.392 68.0621 153.814C65.6138 156.221 62.2658 159.346 57.9702 163.258C49.3796 171.082 37.0208 182.033 20.5351 196.64C12.7121 203.572 7.33544 213.063 7.33544 226C7.33544 235.226 10.0709 242.44 14.5078 248.053C34.1419 272.892 48.8655 291.519 58.9059 304.382C63.9263 310.813 67.7734 315.8 70.4771 319.401C71.8291 321.202 72.8926 322.652 73.6729 323.761C74.4618 324.882 74.9381 325.623 75.1385 326.019C76.1481 328.015 76.7639 329.102 77.149 329.746C77.2769 329.96 77.3847 330.134 77.4658 330.264C77.5031 330.325 77.5348 330.376 77.5602 330.417C77.6496 330.564 77.6702 330.61 77.6812 330.642C77.6922 330.673 77.7044 330.722 77.7253 330.892C77.7312 330.941 77.7381 331.001 77.7461 331.071C77.7636 331.224 77.7867 331.427 77.819 331.674C77.9164 332.418 78.107 333.652 78.5529 335.845C78.6543 336.343 78.7489 336.712 78.8419 336.97C78.8871 337.095 78.9438 337.227 79.0197 337.341C79.0582 337.399 79.1161 337.475 79.1995 337.543Z" stroke="url(#paint0_linear_109_598)" stroke-width="1.32912" style="mix-blend-mode:overlay"/>
</g>
<defs>
<filter id="filter0_bd_109_598" x="-39.8736" y="-20.1079" width="159.747" height="799.855" filterUnits="userSpaceOnUse" color-interpolation-filters="sRGB">
<feFlood flood-opacity="0" result="BackgroundImageFix"/>
<feGaussianBlur in="BackgroundImageFix" stdDeviation="10.054"/>
<feComposite in2="SourceAlpha" operator="in" result="effect1_backgroundBlur_109_598"/>
<feColorMatrix in="SourceAlpha" type="matrix" values="0 0 0 0 0 0 0 0 0 0 0 0 0 0 0 0 0 0 127 0" result="hardAlpha"/>
<feOffset dy="39.8736"/>
<feGaussianBlur stdDeviation="19.9368"/>
<feColorMatrix type="matrix" values="0 0 0 0 0.269263 0 0 0 0 0.166562 0 0 0 0 0.4875 0 0 0 0.15 0"/>
<feBlend mode="normal" in2="effect1_backgroundBlur_109_598" result="effect2_dropShadow_109_598"/>
<feBlend mode="normal" in="SourceGraphic" in2="effect2_dropShadow_109_598" result="shape"/>
</filter>
<linearGradient id="paint0_linear_109_598" x1="0" y1="0" x2="157.937" y2="18.05" gradientUnits="userSpaceOnUse">
<stop stop-color="white" stop-opacity="0.6"/>
<stop offset="1"/>
</linearGradient>
</defs>
</svg>
