<svg width="80" height="700" viewBox="0 0 80 700" fill="none" xmlns="http://www.w3.org/2000/svg">
<g filter="url(#filter0_bd_109_653)">
<path d="M0 0H16.5446C38.7561 0 49.8618 0 58.3455 4.32264C65.8079 8.12494 71.875 14.1921 75.6773 21.6545C80 30.1382 80 41.2439 80 63.4554V242.484C80 253.528 80 259.049 78.7303 263.946C76.6375 272.017 77.9033 269.204 73.2506 276.122C70.4279 280.32 53.9439 294.926 20.9759 324.137C13.278 330.958 8 340.275 8 353C8 362.084 10.6896 369.151 15.0292 374.641C54.2961 424.318 73.9296 449.156 75.7315 452.719C79.7487 460.662 77.4299 453.989 79.2042 462.712C80 466.625 80 460.457 80 462.924V636.545C80 658.756 80 669.862 75.6773 678.345C71.875 685.808 65.8079 691.875 58.3455 695.677C49.8618 700 38.7561 700 16.5446 700H0V0Z" fill="white" fill-opacity="0.4"/>
<path d="M79.1995 464.543C79.2356 464.572 79.2811 464.604 79.3354 464.632V636.545C79.3354 647.661 79.3349 655.959 78.7973 662.539C78.2603 669.111 77.1908 673.911 75.0852 678.044C71.3466 685.381 65.3811 691.347 58.0437 695.085C53.9112 697.191 49.1111 698.26 42.5388 698.797C35.9588 699.335 27.6613 699.335 16.5446 699.335H0.66456V0.66456H16.5446C27.6613 0.66456 35.9588 0.665077 42.5388 1.20268C49.1111 1.73966 53.9112 2.80914 58.0437 4.91477C65.3811 8.65336 71.3466 14.6188 75.0852 21.9562C77.1908 26.0888 78.2603 30.8889 78.7973 37.4612C79.3349 44.0411 79.3354 52.3387 79.3354 63.4554V242.484C79.3354 253.565 79.3303 258.984 78.087 263.779C77.7453 265.097 77.4899 266.137 77.286 266.968C77.1785 267.406 77.0853 267.786 77.0013 268.117C76.7541 269.092 76.5823 269.665 76.3444 270.193C76.1065 270.722 75.7916 271.231 75.2259 272.062C75.0337 272.345 74.8113 272.666 74.5545 273.038C74.0681 273.741 73.4587 274.622 72.6992 275.752C72.0367 276.737 70.5254 278.392 68.0621 280.814C65.6138 283.221 62.2658 286.346 57.9702 290.258C49.3799 298.082 37.0216 309.032 20.5367 323.639L20.5351 323.64C12.7121 330.572 7.33544 340.063 7.33544 353C7.33544 362.226 10.0709 369.44 14.5078 375.053C34.1419 399.892 48.8655 418.519 58.9059 431.382C63.9263 437.813 67.7734 442.8 70.4771 446.401C71.8291 448.202 72.8926 449.652 73.6729 450.761C74.4618 451.882 74.9381 452.623 75.1385 453.019C76.1481 455.015 76.7639 456.102 77.149 456.746C77.2187 456.863 77.2825 456.967 77.3392 457.06C77.4344 457.215 77.5098 457.335 77.5602 457.417C77.6496 457.564 77.6702 457.61 77.6812 457.642C77.6922 457.673 77.7044 457.722 77.7253 457.892C77.7312 457.941 77.7381 458.001 77.7461 458.071C77.7636 458.224 77.7867 458.427 77.819 458.674C77.9164 459.418 78.107 460.652 78.5529 462.845C78.6543 463.343 78.7489 463.712 78.8419 463.97C78.8871 464.095 78.9438 464.227 79.0197 464.341C79.0582 464.399 79.1161 464.475 79.1995 464.543Z" stroke="url(#paint0_linear_109_653)" stroke-width="1.32912" style="mix-blend-mode:overlay"/>
</g>
<defs>
<filter id="filter0_bd_109_653" x="-39.8736" y="-20.1079" width="159.747" height="799.855" filterUnits="userSpaceOnUse" color-interpolation-filters="sRGB">
<feFlood flood-opacity="0" result="BackgroundImageFix"/>
<feGaussianBlur in="BackgroundImageFix" stdDeviation="10.054"/>
<feComposite in2="SourceAlpha" operator="in" result="effect1_backgroundBlur_109_653"/>
<feColorMatrix in="SourceAlpha" type="matrix" values="0 0 0 0 0 0 0 0 0 0 0 0 0 0 0 0 0 0 127 0" result="hardAlpha"/>
<feOffset dy="39.8736"/>
<feGaussianBlur stdDeviation="19.9368"/>
<feColorMatrix type="matrix" values="0 0 0 0 0.269263 0 0 0 0 0.166562 0 0 0 0 0.4875 0 0 0 0.15 0"/>
<feBlend mode="normal" in2="effect1_backgroundBlur_109_653" result="effect2_dropShadow_109_653"/>
<feBlend mode="normal" in="SourceGraphic" in2="effect2_dropShadow_109_653" result="shape"/>
</filter>
<linearGradient id="paint0_linear_109_653" x1="0" y1="0" x2="157.937" y2="18.05" gradientUnits="userSpaceOnUse">
<stop stop-color="white" stop-opacity="0.6"/>
<stop offset="1"/>
</linearGradient>
</defs>
</svg>
