<svg width="1203" height="1024" viewBox="0 0 1203 1024" fill="none" xmlns="http://www.w3.org/2000/svg">
<g filter="url(#filter0_f_1_1399)">
<circle cx="601.5" cy="544.5" r="429.5" fill="url(#paint0_radial_1_1399)" fill-opacity="0.6"/>
</g>
<g opacity="0.4">
<g style="mix-blend-mode:overlay">
<path d="M521.07 456.16C312.617 480.539 158 570.015 158 676.665C158 802.07 371.781 903.731 635.493 903.731C899.204 903.731 1112.99 802.07 1112.99 676.665C1112.99 566.564 948.2 474.766 729.514 454" stroke="url(#paint1_angular_1_1399)" stroke-width="1.70856" stroke-linecap="round"/>
</g>
<g style="mix-blend-mode:overlay">
<path d="M521.07 457.76C312.617 482.138 158 571.615 158 678.264C158 803.669 371.781 905.33 635.493 905.33C899.204 905.33 1112.99 803.669 1112.99 678.264C1112.99 568.164 948.2 476.366 729.514 455.599" stroke="url(#paint2_angular_1_1399)" stroke-width="1.70856" stroke-linecap="round"/>
</g>
<g style="mix-blend-mode:overlay">
<path d="M745.746 461.28C956.303 484.946 1112.99 574.903 1112.99 682.263C1112.99 807.668 899.204 909.328 635.493 909.328C371.781 909.328 158 807.668 158 682.263C158 577.369 307.568 489.087 510.818 463.015" stroke="url(#paint3_angular_1_1399)" stroke-width="1.70856" stroke-linecap="round"/>
</g>
<g style="mix-blend-mode:overlay">
<path d="M494.587 471.643C299.655 500.231 158 586.579 158 688.66C158 814.065 371.781 915.726 635.493 915.726C899.204 915.726 1112.99 814.065 1112.99 688.66C1112.99 583.27 961.999 494.65 757.279 469.046" stroke="url(#paint4_angular_1_1399)" stroke-width="1.70856" stroke-linecap="round"/>
</g>
<g style="mix-blend-mode:overlay">
<path d="M774.791 480.204C970.552 508.553 1112.99 595.094 1112.99 697.456C1112.99 822.861 899.204 924.522 635.493 924.522C371.781 924.522 158 822.861 158 697.456C158 598.458 291.228 514.257 477.074 483.186" stroke="url(#paint5_angular_1_1399)" stroke-width="1.70856" stroke-linecap="round"/>
</g>
</g>
<defs>
<filter id="filter0_f_1_1399" x="0.199997" y="-56.8" width="1202.6" height="1202.6" filterUnits="userSpaceOnUse" color-interpolation-filters="sRGB">
<feFlood flood-opacity="0" result="BackgroundImageFix"/>
<feBlend mode="normal" in="SourceGraphic" in2="BackgroundImageFix" result="shape"/>
<feGaussianBlur stdDeviation="85.9" result="effect1_foregroundBlur_1_1399"/>
</filter>
<radialGradient id="paint0_radial_1_1399" cx="0" cy="0" r="1" gradientUnits="userSpaceOnUse" gradientTransform="translate(555.973 531.615) rotate(89.3883) scale(482.785)">
<stop stop-color="#2954A3"/>
<stop offset="1" stop-color="#101241"/>
</radialGradient>
<radialGradient id="paint1_angular_1_1399" cx="0" cy="0" r="1" gradientUnits="userSpaceOnUse" gradientTransform="translate(642.381 698.459) scale(508.767 237.904)">
<stop offset="0.458333" stop-color="#0066FF" stop-opacity="0.5"/>
<stop offset="0.717799" stop-color="white" stop-opacity="0"/>
<stop offset="0.782437" stop-color="white" stop-opacity="0"/>
<stop offset="1" stop-color="white" stop-opacity="0.4"/>
</radialGradient>
<radialGradient id="paint2_angular_1_1399" cx="0" cy="0" r="1" gradientUnits="userSpaceOnUse" gradientTransform="translate(642.381 700.059) scale(508.767 237.905)">
<stop offset="0.458333" stop-color="#0066FF" stop-opacity="0.5"/>
<stop offset="0.717799" stop-color="white" stop-opacity="0"/>
<stop offset="0.782437" stop-color="white" stop-opacity="0"/>
<stop offset="1" stop-color="white" stop-opacity="0.4"/>
</radialGradient>
<radialGradient id="paint3_angular_1_1399" cx="0" cy="0" r="1" gradientUnits="userSpaceOnUse" gradientTransform="translate(642.381 704.825) scale(508.767 237.015)">
<stop offset="0.458333" stop-color="#0066FF" stop-opacity="0.5"/>
<stop offset="0.717799" stop-color="white" stop-opacity="0"/>
<stop offset="0.782437" stop-color="white" stop-opacity="0"/>
<stop offset="1" stop-color="white" stop-opacity="0.4"/>
</radialGradient>
<radialGradient id="paint4_angular_1_1399" cx="0" cy="0" r="1" gradientUnits="userSpaceOnUse" gradientTransform="translate(642.381 711.847) scale(508.767 236.29)">
<stop offset="0.458333" stop-color="#0066FF" stop-opacity="0.5"/>
<stop offset="0.717799" stop-color="white" stop-opacity="0"/>
<stop offset="0.782437" stop-color="white" stop-opacity="0"/>
<stop offset="1" stop-color="white" stop-opacity="0.4"/>
</radialGradient>
<radialGradient id="paint5_angular_1_1399" cx="0" cy="0" r="1" gradientUnits="userSpaceOnUse" gradientTransform="translate(642.381 721.721) scale(508.767 235.041)">
<stop offset="0.458333" stop-color="#0066FF" stop-opacity="0.5"/>
<stop offset="0.717799" stop-color="white" stop-opacity="0"/>
<stop offset="0.782437" stop-color="white" stop-opacity="0"/>
<stop offset="1" stop-color="white" stop-opacity="0.4"/>
</radialGradient>
</defs>
</svg>
