<svg width="1440" height="822" viewBox="0 0 1440 822" fill="none" xmlns="http://www.w3.org/2000/svg">
<g opacity="0.15">
<g style="mix-blend-mode:overlay">
<path d="M490.195 5.75585C127.801 48.1378 -141 203.692 -141 389.102C-141 607.118 230.657 783.855 689.119 783.855C1147.58 783.855 1519.24 607.118 1519.24 389.102C1519.24 197.693 1232.76 38.1023 852.575 2" stroke="url(#paint0_angular_1_1371)" stroke-width="2.97033" stroke-linecap="round"/>
</g>
<g style="mix-blend-mode:overlay">
<path d="M490.195 8.53588C127.801 50.9179 -141 206.472 -141 391.882C-141 609.898 230.657 786.635 689.119 786.635C1147.58 786.635 1519.24 609.898 1519.24 391.882C1519.24 200.473 1232.76 40.8823 852.575 4.78003" stroke="url(#paint1_angular_1_1371)" stroke-width="2.97033" stroke-linecap="round"/>
</g>
<g style="mix-blend-mode:overlay">
<path d="M880.794 14.656C1246.85 55.7998 1519.24 212.19 1519.24 398.834C1519.24 616.85 1147.58 793.586 689.119 793.586C230.657 793.586 -141 616.85 -141 398.834C-141 216.476 119.023 62.9993 472.373 17.6721" stroke="url(#paint2_angular_1_1371)" stroke-width="2.97033" stroke-linecap="round"/>
</g>
<g style="mix-blend-mode:overlay">
<path d="M444.155 32.6717C105.266 82.372 -141 232.488 -141 409.955C-141 627.971 230.657 804.708 689.119 804.708C1147.58 804.708 1519.24 627.971 1519.24 409.955C1519.24 226.735 1256.75 72.6696 900.843 28.158" stroke="url(#paint3_angular_1_1371)" stroke-width="2.97033" stroke-linecap="round"/>
</g>
<g style="mix-blend-mode:overlay">
<path d="M931.289 47.5562C1271.62 96.8395 1519.24 247.292 1519.24 425.247C1519.24 643.263 1147.58 820 689.119 820C230.657 820 -141 643.263 -141 425.247C-141 253.139 90.6161 106.756 413.709 52.7388" stroke="url(#paint4_angular_1_1371)" stroke-width="2.97033" stroke-linecap="round"/>
</g>
</g>
<defs>
<radialGradient id="paint0_angular_1_1371" cx="0" cy="0" r="1" gradientUnits="userSpaceOnUse" gradientTransform="translate(701.095 426.992) scale(884.489 413.596)">
<stop offset="0.458333" stop-color="#0066FF" stop-opacity="0.5"/>
<stop offset="0.717799" stop-color="white" stop-opacity="0"/>
<stop offset="0.782437" stop-color="white" stop-opacity="0"/>
<stop offset="1" stop-color="white" stop-opacity="0.4"/>
</radialGradient>
<radialGradient id="paint1_angular_1_1371" cx="0" cy="0" r="1" gradientUnits="userSpaceOnUse" gradientTransform="translate(701.095 429.772) scale(884.489 413.596)">
<stop offset="0.458333" stop-color="#0066FF" stop-opacity="0.5"/>
<stop offset="0.717799" stop-color="white" stop-opacity="0"/>
<stop offset="0.782437" stop-color="white" stop-opacity="0"/>
<stop offset="1" stop-color="white" stop-opacity="0.4"/>
</radialGradient>
<radialGradient id="paint2_angular_1_1371" cx="0" cy="0" r="1" gradientUnits="userSpaceOnUse" gradientTransform="translate(701.095 438.058) scale(884.489 412.049)">
<stop offset="0.458333" stop-color="#0066FF" stop-opacity="0.5"/>
<stop offset="0.717799" stop-color="white" stop-opacity="0"/>
<stop offset="0.782437" stop-color="white" stop-opacity="0"/>
<stop offset="1" stop-color="white" stop-opacity="0.4"/>
</radialGradient>
<radialGradient id="paint3_angular_1_1371" cx="0" cy="0" r="1" gradientUnits="userSpaceOnUse" gradientTransform="translate(701.095 450.266) scale(884.489 410.79)">
<stop offset="0.458333" stop-color="#0066FF" stop-opacity="0.5"/>
<stop offset="0.717799" stop-color="white" stop-opacity="0"/>
<stop offset="0.782437" stop-color="white" stop-opacity="0"/>
<stop offset="1" stop-color="white" stop-opacity="0.4"/>
</radialGradient>
<radialGradient id="paint4_angular_1_1371" cx="0" cy="0" r="1" gradientUnits="userSpaceOnUse" gradientTransform="translate(701.095 467.432) scale(884.489 408.618)">
<stop offset="0.458333" stop-color="#0066FF" stop-opacity="0.5"/>
<stop offset="0.717799" stop-color="white" stop-opacity="0"/>
<stop offset="0.782437" stop-color="white" stop-opacity="0"/>
<stop offset="1" stop-color="white" stop-opacity="0.4"/>
</radialGradient>
</defs>
</svg>
