<svg width="59" height="38" viewBox="0 0 59 38" fill="none" xmlns="http://www.w3.org/2000/svg">
<path d="M54.0833 5.20841H36.875V0.291748H54.0833V5.20841ZM58.3264 29.7917C57.2398 32.9802 53.3385 37.1667 45.7865 37.1667C38.2295 37.1667 32.1083 32.9163 32.1083 23.2157C32.1083 13.6036 37.8239 8.66237 45.5456 8.66237C53.1221 8.66237 57.7487 13.0431 58.7591 19.543C58.9508 20.7869 59.0271 22.4635 58.9926 24.8038H39.2596C39.5792 32.6975 47.822 32.9458 50.5384 29.7917H58.3264ZM39.4317 19.9584H51.6373C51.3792 16.1554 48.8446 14.5034 45.548 14.5034C41.9441 14.5034 39.9504 16.3914 39.4317 19.9584ZM15.8956 37.1372H0V0.343373H17.0928C30.5546 0.542498 30.8103 13.7265 23.7795 17.3206C32.2878 20.4181 32.5729 37.1372 15.8956 37.1372V37.1372ZM7.375 15.0417H16.1857C22.3512 15.0417 23.3296 7.66675 15.4187 7.66675H7.375V15.0417ZM15.7112 22.4167H7.375V29.8311H15.5883C23.0985 29.8311 22.6388 22.4167 15.7112 22.4167V22.4167Z" fill="white"/>
</svg>
