<svg width="174" height="67" viewBox="0 0 174 67" fill="none" xmlns="http://www.w3.org/2000/svg">
<rect x="73.3333" y="42" width="25" height="25" fill="white"/>
<path d="M94 49.231V60.751C94 61.153 93.8772 61.513 93.6316 61.831C93.386 62.143 93.0554 62.353 92.6398 62.461L87.2273 63.946C87.1518 63.964 87.0668 63.982 86.9723 64H86.7645C86.5567 64 86.3678 63.973 86.1977 63.919C86.0277 63.865 85.8545 63.793 85.6782 63.703L82.136 61.795C82.0038 61.723 81.8999 61.63 81.8243 61.516C81.7487 61.402 81.711 61.273 81.711 61.129C81.711 60.913 81.7928 60.73 81.9565 60.58C82.114 60.43 82.306 60.355 82.5327 60.355H87.1234V49.726L83.6662 50.896C83.3955 50.992 83.1751 51.16 83.005 51.4C82.835 51.628 82.75 51.883 82.75 52.165V58.222C82.75 58.474 82.6839 58.702 82.5516 58.906C82.4257 59.11 82.2462 59.272 82.0132 59.392L80.3885 60.238C80.2374 60.316 80.0863 60.355 79.9351 60.355C79.677 60.355 79.4565 60.268 79.2739 60.094C79.0913 59.92 79 59.707 79 59.455V50.923C79 50.611 79.085 50.32 79.255 50.05C79.4314 49.75 79.6612 49.522 79.9446 49.366L85.7632 46.216C85.8955 46.144 86.0372 46.09 86.1883 46.054C86.3394 46.018 86.4906 46 86.6417 46C86.7487 46 86.8463 46.009 86.9345 46.027C87.0227 46.039 87.1203 46.06 87.2273 46.09L92.6398 47.521C92.8476 47.575 93.0334 47.656 93.1971 47.764C93.3608 47.872 93.5025 48.001 93.6222 48.151C93.7481 48.307 93.8426 48.475 93.9055 48.655C93.9685 48.841 94 49.033 94 49.231M92.7531 60.751V49.231C92.7531 49.093 92.7154 48.973 92.6398 48.871C92.5453 48.757 92.4288 48.688 92.2903 48.664L89.6266 47.962C89.4314 47.908 89.2236 47.854 89.0031 47.8C88.7953 47.734 88.5907 47.677 88.3892 47.629V62.389L92.2903 61.3C92.4288 61.276 92.5453 61.213 92.6398 61.111C92.7154 61.009 92.7531 60.889 92.7531 60.751Z" fill="#5E58B6"/>
<g clip-path="url(#clip0_109_569)">
<rect x="111.333" y="42" width="25" height="25" fill="white"/>
<path d="M118.56 45H119.371V45.8018H120.114V45H120.925V47.427H120.114V46.6148H119.371V47.427H118.561V45H118.56ZM121.992 45.8048H121.278V45H123.518V45.8048H122.803V47.427H121.992V45.8048V45.8048ZM123.874 45H124.72L125.24 45.8528L125.76 45H126.606V47.427H125.798V46.224L125.24 47.0873H125.226L124.667 46.2248V47.427H123.874V45V45ZM127.009 45H127.822V46.6253H128.962V47.4278H127.009V45V45Z" fill="#5557B3"/>
<path fill-rule="evenodd" clip-rule="evenodd" d="M118.535 61.5541L117 48.5378H130.5L128.965 61.5526L123.742 63.0001L118.535 61.5541ZM121.637 54.4291L121.492 52.7941H127.601L127.743 51.1981H119.748L120.178 56.0258H125.711L125.526 58.0958L123.746 58.5773H123.744L121.966 58.0973L121.853 56.8246H120.249L120.473 59.3311L123.742 60.2386L127.018 59.3311L127.417 54.8581L127.456 54.4298H121.637V54.4291Z" fill="#5557B3"/>
</g>
<g clip-path="url(#clip1_109_569)">
<rect x="148.333" y="42" width="25" height="25" fill="white"/>
<path d="M158.333 45H160.098V45.6571H159.071V46.3142H160.098V46.9714H158.333V45ZM160.451 45H162.216V45.5718H161.189V45.6858H162.216V47H160.451V46.4002H161.477V46.2856H160.451V45ZM162.569 45H164.333V45.5718H163.307V45.6858H164.333V47H162.569V46.4002H163.596V46.2856H162.569V45Z" fill="#5557B3"/>
<path fill-rule="evenodd" clip-rule="evenodd" d="M161.326 63L155.925 61.6002L154.333 49H168.333L166.742 61.5988L161.326 63ZM157.481 54.7037L157.63 56.2487H163.367L163.175 58.2525L161.329 58.7186H161.327L159.484 58.254L159.366 57.0219H157.703L157.935 59.4483L161.326 60.3268L164.723 59.4483L165.137 55.1182L165.177 54.7037L165.476 51.5752H157.183L157.334 53.1209H163.662L163.511 54.7037H157.481V54.7037Z" fill="#5557B3"/>
</g>
<g clip-path="url(#clip2_109_569)">
<path d="M37.3333 42V67H62.3333V42H37.3333ZM47.9553 59.9457L45.6439 55.1821L43.4138 59.9343H41.2402L44.4389 53.8406L41.3462 47.6787H43.6022L45.7917 52.3626L47.9629 47.6673H50.0806L46.9854 53.6473L50.2634 59.9457H47.9553H47.9553ZM57.8654 59.4454C56.9104 59.9002 55.91 60.1048 54.955 60.1048C52.488 60.1162 50.7258 58.5928 50.7258 55.5004C50.8061 52.3327 52.9168 50.565 55.8759 50.8051V47.6787H57.8995V58.2062C57.9037 59.4618 58.0423 59.341 57.8654 59.4454V59.4454ZM55.8758 52.59V58.2176C53.8784 58.7359 52.774 57.5203 52.7835 55.4095C52.7911 53.2447 54.2133 52.1212 55.8758 52.59Z" fill="white"/>
</g>
<g clip-path="url(#clip3_109_569)">
<path fill-rule="evenodd" clip-rule="evenodd" d="M25 25H0V0H25V25ZM19.8442 10.5964V8.65742C19.5249 8.51523 17.6962 7.99214 16.2516 8.54341C14.1705 9.33745 14.2453 11.7295 15.035 12.6684C16.0582 13.8848 18.6034 14.3383 18.1869 15.5322C17.9712 16.1505 16.9644 16.2581 16.0767 16.0505C15.25 15.8573 14.5313 15.3676 14.5313 15.3676V17.4206C14.5313 17.4206 15.2417 17.8167 16.1137 17.9109C17.2315 18.0317 18.6327 17.8037 19.3346 17.1797C20.5841 16.069 20.776 13.6086 18.4081 12.4661C16.4376 11.5154 16.4701 11.244 16.4839 10.7564C16.5024 10.1033 17.8737 9.70122 19.8442 10.5964V10.5964ZM9.21826 5.15503C10.8578 5.21206 13.2672 5.96768 13.2672 9.1897C13.2672 12.4117 10.3192 13.469 7.62935 13.2386V17.8008H5.62549V5.19775C5.62549 5.19775 7.57866 5.098 9.21821 5.15503H9.21826ZM9.73862 11.2427C10.6027 10.9274 11.1643 10.2496 11.1643 9.19678C11.1643 8.08052 10.5928 7.32461 9.71865 7.11108C8.77207 6.87978 7.62935 7.01611 7.62935 7.01611V11.4128C7.62935 11.4128 9.21113 11.4352 9.73862 11.2427V11.2427Z" fill="white"/>
</g>
<g clip-path="url(#clip4_109_569)">
<path d="M148 0V25H173V0H148ZM160.895 11.6112C159.994 12.9108 158.189 13.5667 155.699 13.4491V18.1918H153.573V5.05371L156.789 4.99922C159.463 4.89863 161.512 6.31475 161.532 9.14238C161.509 10.1381 161.341 10.9686 160.895 11.6113V11.6112ZM167.856 10.1781C167.853 10.2627 167.81 10.2892 167.747 10.2872C166.953 10.2152 166.136 10.336 165.457 10.5052V18.1918H163.331V10.4507C163.34 9.99194 163.314 9.65889 163.276 9.30586C163.268 9.26548 163.267 9.18076 163.385 9.14228C164.448 8.75679 166.054 8.29155 167.747 8.32461C167.814 8.32427 167.855 8.35439 167.856 8.43364V10.1781ZM159.351 9.19683C159.354 9.85249 159.245 10.3211 158.995 10.6571C158.351 11.5225 157.081 11.5077 156.68 11.541H155.699V6.90723H156.844C158.704 6.92026 159.323 7.86123 159.351 9.19683Z" fill="white"/>
</g>
<g clip-path="url(#clip5_109_569)">
<path fill-rule="evenodd" clip-rule="evenodd" d="M45.4008 5.27383H48.005L51.7498 17.8198H49.4878L48.5563 14.2461H44.9066L43.9562 17.8198H41.9602L45.4009 5.86313V5.27383H45.4008ZM48.0431 12.4022L46.7504 7.09863L45.4198 12.4021H48.0431V12.4022ZM55.6277 8.496H53.5747V17.8198H55.6277V8.49609V8.496ZM54.5747 4.87358C53.9096 4.87358 53.3705 5.40654 53.3705 6.06401C53.3705 6.72148 53.9096 7.25449 54.5747 7.25449C55.2398 7.25449 55.779 6.72153 55.779 6.06406C55.779 5.40659 55.2398 4.87358 54.5747 4.87358ZM62 25H37V0H62V25Z" fill="white"/>
</g>
<g clip-path="url(#clip6_109_569)">
<path d="M130.003 11.4659C130.232 11.901 130.308 12.3651 130.301 12.8452H127.001C127.202 11.5537 127.733 10.7661 128.786 10.7897C129.399 10.7897 129.805 11.0154 130.003 11.4659ZM117.86 13.2238H120.673L119.212 7.70669C119.029 8.95459 118.386 11.0807 117.86 13.2238ZM136 1V26H111V1H136ZM124.399 18.849L120.533 5.81357H117.86C117.86 6.10264 117.842 6.41787 117.806 6.5438C117.77 6.67056 117.752 6.78721 117.752 6.89536L114.337 18.849H116.357L117.319 15.171H121.106L122.164 18.849H124.399ZM132.302 12.9533C132.302 12.0879 132.049 11.2225 131.545 10.3571C131.039 9.49165 130.138 9.05894 128.84 9.05894C127.578 9.05894 126.596 9.55503 125.892 10.5464C124.566 12.2956 124.428 15.5996 125.838 17.5238C126.505 18.516 127.614 19.0113 129.165 19.0113C130.014 19.0092 130.824 18.9067 131.545 18.5786C131.629 18.4919 131.651 18.4508 131.653 18.3081V16.8477C131.65 16.7464 131.595 16.7422 131.491 16.7396C130.435 17.2554 128.901 17.237 128.125 16.7895C127.403 16.3731 126.978 15.5029 127.001 14.4679H130.084C130.625 14.4679 131.058 14.4594 131.382 14.4408C131.707 14.423 131.941 14.396 132.086 14.3597C132.121 14.3597 132.148 14.3512 132.167 14.3326L132.248 14.2515C132.248 14.1433 132.256 13.9726 132.275 13.7376C132.293 13.5035 132.302 13.2424 132.302 12.9533Z" fill="white"/>
</g>
<g clip-path="url(#clip7_109_569)">
<path d="M9.83334 65C11.7653 65 13.3333 63.432 13.3333 61.5V58H9.83334C7.90134 58 6.33334 59.568 6.33334 61.5C6.33334 63.432 7.90134 65 9.83334 65Z" fill="#0ACF83"/>
<path d="M6.33334 54.5C6.33334 52.568 7.90134 51 9.83334 51H13.3333V58H9.83334C7.90134 58 6.33334 56.432 6.33334 54.5Z" fill="#A259FF"/>
<path d="M6.33334 47.5C6.33334 45.568 7.90134 44 9.83334 44H13.3333V51H9.83334C7.90134 51 6.33334 49.432 6.33334 47.5Z" fill="#F24E1E"/>
<path d="M13.3333 44H16.8333C18.7653 44 20.3333 45.568 20.3333 47.5C20.3333 49.432 18.7653 51 16.8333 51H13.3333V44Z" fill="#FF7262"/>
<path d="M20.3333 54.5C20.3333 56.432 18.7653 58 16.8333 58C14.9013 58 13.3333 56.432 13.3333 54.5C13.3333 52.568 14.9013 51 16.8333 51C18.7653 51 20.3333 52.568 20.3333 54.5Z" fill="#1ABCFE"/>
</g>
<g clip-path="url(#clip8_109_569)">
<path d="M86.9542 13.1511C86.8936 11.201 88.2638 9.65757 90.2531 10.1767V16.1796C88.2707 16.6585 86.8706 15.4801 86.9542 13.1511ZM74 0V25H99V0H74ZM82.6818 18.0183H80.5728V4.98506H82.6818V18.0183ZM89.2796 18.1805C86.8726 18.25 84.7439 16.7234 84.791 13.2592C84.8288 10.4753 86.5636 7.97544 90.2531 8.22983V4.98506H92.4163V16.6933C92.4163 16.8919 92.4343 17.1761 92.4828 17.4117C91.6522 17.8716 90.5762 18.1722 89.2796 18.1805Z" fill="white"/>
</g>
<defs>
<clipPath id="clip0_109_569">
<rect width="24" height="24" fill="white" transform="translate(111.333 41)"/>
</clipPath>
<clipPath id="clip1_109_569">
<rect width="24" height="24" fill="white" transform="translate(149.333 41)"/>
</clipPath>
<clipPath id="clip2_109_569">
<rect width="25" height="25" fill="white" transform="translate(37.3333 42)"/>
</clipPath>
<clipPath id="clip3_109_569">
<rect width="25" height="25" fill="white"/>
</clipPath>
<clipPath id="clip4_109_569">
<rect width="25" height="25" fill="white" transform="translate(148)"/>
</clipPath>
<clipPath id="clip5_109_569">
<rect width="25" height="25" fill="white" transform="translate(37)"/>
</clipPath>
<clipPath id="clip6_109_569">
<rect width="25" height="25" fill="white" transform="translate(111 1)"/>
</clipPath>
<clipPath id="clip7_109_569">
<rect width="14" height="21" fill="white" transform="translate(6.33334 44)"/>
</clipPath>
<clipPath id="clip8_109_569">
<rect width="25" height="25" fill="white" transform="translate(74)"/>
</clipPath>
</defs>
</svg>
