<svg width="84" height="34" viewBox="0 0 84 34" fill="none" xmlns="http://www.w3.org/2000/svg">
<path d="M0 0.0387611C0 0.0387611 3.32965 -0.39213 5.54958 1.62532C6.91966 2.86968 7.31883 4.85346 7.31883 4.85346L11.852 22.9608L15.6225 8.14086C15.9887 6.56575 16.6512 4.61748 17.6978 3.30074C19.0334 1.6238 21.7448 1.51793 22.0339 1.51793C22.3232 1.51793 25.0331 1.62397 26.3676 3.30074C27.4142 4.61748 28.0765 6.5644 28.4442 8.14086L32.2145 22.9608L36.7464 4.8533C36.7464 4.8533 37.1472 2.86985 38.5173 1.62532C40.7372 -0.392298 44.0655 0.0385928 44.0655 0.0385928L35.3847 33.8784C35.3847 33.8784 32.5218 34.0918 31.0882 33.3387C29.2059 32.3497 28.3123 31.5869 27.172 26.9814C26.5958 24.6258 26.0266 22.2683 25.4645 19.9091L25.251 19.0204C24.7124 16.763 24.1707 14.5063 23.626 12.2505L23.4194 11.4028C23.2294 10.6343 23.0987 10.1172 23.0519 9.96188C22.9238 9.53654 22.7709 8.52361 22.0328 8.52361C21.3112 8.52361 21.1445 9.53789 21.0138 9.96188C20.9655 10.1172 20.8348 10.6328 20.6461 11.4027L20.4394 12.2505C19.9998 14.0635 19.5637 15.8775 19.1313 17.6923L18.9194 18.5768C18.2525 21.3808 17.5777 24.1827 16.895 26.9826C15.7548 31.5869 14.8598 32.3512 12.9772 33.3387C11.5438 34.0918 8.68087 33.8784 8.68087 33.8784L0 0.0387611ZM52.3251 5.65162V6.8736H52.3279V27.3009C52.3126 31.4926 51.9176 32.4236 50.199 33.3886C48.8632 34.1386 46.8197 33.8548 46.8197 33.8548V10.9718C46.8197 9.82335 47.1667 9.07031 48.446 8.39502C49.2102 7.99106 49.9221 7.68152 50.663 7.22387C51.6753 6.60228 52.1888 5.86336 52.3016 5.68815L52.3251 5.65145V5.65162ZM55.082 0.151702C55.082 0.151702 59.567 -0.663457 61.7882 1.49386C63.0372 2.70742 64.4183 4.7757 64.731 5.25322L64.7901 5.3436L64.797 5.35488L68.7079 11.3677C68.8966 11.6799 69.1443 12.0204 69.541 12.0204C69.9362 12.0204 70.1854 11.6812 70.3754 11.3677L74.285 5.35488L74.2918 5.3436L74.351 5.25322C74.6635 4.7757 76.0448 2.70742 77.2951 1.49251C79.5149 -0.663457 84 0.150355 84 0.150355L73.3733 17.013L83.9711 33.8206C83.9711 33.8206 79.3828 34.4506 77.1615 32.2935C75.7404 30.9146 74.2849 28.6696 74.2849 28.6696L70.3741 22.6584C70.1854 22.3448 69.9361 22.0043 69.541 22.0043C69.1445 22.0043 68.8966 22.3434 68.7064 22.6584L64.797 28.6696C64.797 28.6696 63.4213 30.9146 62.0017 32.2935C59.7804 34.4506 55.1094 33.8206 55.1094 33.8206L65.7074 17.013L55.082 0.151702ZM52.3141 0.000553195H52.3279C52.3279 2.24691 52.1212 3.582 50.7993 4.619C50.1857 5.10279 49.5089 5.49598 48.7889 5.78712C48.0587 6.07941 47.3902 6.51307 46.8197 7.06447C46.8197 2.97303 47.4021 1.491 48.9679 0.613731C49.9414 0.0683849 51.5402 0.00610765 52.1145 0.000553195H52.3141V0.000553195Z" fill="white"/>
</svg>
